<svg width="29" height="25" viewBox="0 0 29 25" fill="none" xmlns="http://www.w3.org/2000/svg">
<path d="M27.3699 10.2259L27.4152 10.2358H8.00967L14.11 4.12194C14.4088 3.82346 14.5726 3.41911 14.5726 2.99472C14.5726 2.57033 14.4088 2.16881 14.11 1.86961L13.1608 0.919919C12.8623 0.621431 12.4646 0.45639 12.0404 0.45639C11.616 0.45639 11.2181 0.620252 10.9196 0.91874L0.462356 11.375C0.162689 11.6747 -0.00117255 12.0738 6.31667e-06 12.4985C-0.00117255 12.9254 0.162689 13.3248 0.462356 13.624L10.9196 24.0813C11.2181 24.3795 11.6158 24.5436 12.0404 24.5436C12.4646 24.5436 12.8623 24.3793 13.1608 24.0813L14.11 23.1316C14.4088 22.8335 14.5726 22.4356 14.5726 22.0112C14.5726 21.587 14.4088 21.21 14.11 20.9118L7.94082 14.7638H27.3916C28.2656 14.7638 29 14.0105 29 13.1369V11.7937C29 10.9202 28.2439 10.2259 27.3699 10.2259Z" fill="black"/>
</svg>
